<?xml version="1.0" encoding="UTF-8"?><svg id="_Слой_1" xmlns="http://www.w3.org/2000/svg" width="184" height="40" viewBox="0 0 184 40"><defs><style>.cls-1{fill:#fff;}</style></defs><path class="cls-1" d="M63.09,13.04v5.92h-16.61v4.16h12.31v5.58h-12.31v4.06h17.21v5.97h-23.4V13.04h22.8Z"/><path class="cls-1" d="M88.74,22.71c-1.91-2.79-4.22-4.49-8.17-4.49-4.55,0-7.92,3.14-7.92,7.69s3.41,7.65,7.88,7.65c3.9,0,6.4-1.49,8.17-4.23l5.04,2.76c-2.6,4.88-7.58,7.3-13.2,7.3-7.84,0-13.98-5.16-13.98-13.48s6.4-13.48,13.98-13.48c5.83,0,10.56,2.46,13.21,7.3l-5,2.98Z"/><path class="cls-1" d="M179,22.71c-1.91-2.79-4.22-4.49-8.17-4.49-4.55,0-7.92,3.14-7.92,7.69s3.41,7.65,7.88,7.65c3.9,0,6.4-1.49,8.17-4.23l5.04,2.76c-2.6,4.88-7.58,7.3-13.2,7.3-7.84,0-13.98-5.16-13.98-13.48s6.4-13.48,13.98-13.48c5.83,0,10.56,2.46,13.21,7.3l-5,2.98Z"/><rect class="cls-1" x="10.59" y="13.04" width="9.54" height="9.54"/><rect class="cls-1" x="10.59" y="2.33" width="6.17" height="6.17"/><rect class="cls-1" y="13.04" width="6.17" height="6.17"/><rect class="cls-1" y="2.33" width="6.17" height="6.17"/><path class="cls-1" d="M25.01,13.04h-.44v5.97h.93c2.42,0,4.14,1.45,4.14,3.91s-1.72,4.11-4.14,4.11H10.59v11.71h6.19v-5.74h8.24c6.18,0,10.73-3.95,10.73-10.03s-4.55-9.92-10.73-9.92Z"/><path class="cls-1" d="M117.18,32.71l6.7-19.68h-6.29l-3.69,11.48h-7.22c-.65,0-1.22-.42-1.4-1.04l-3.14-10.43h-6.21l3.77,11.84c1.25,3.72,3.63,5.09,7.72,5.09h4.84l-.41,1.23c-.41,1.22-1.56,2.05-2.85,2.05h-7.84l-1.8,5.49h9.41c3.8,0,7.19-2.42,8.41-6.02Z"/><g><path class="cls-1" d="M28.47,3.55h-2.64v4.95h-1.26V2.35h3.89v1.19Z"/><path class="cls-1" d="M35.5,4.42c0,1.29-.87,2.1-2.19,2.1h-1.33v1.99h-1.26V2.35h2.58c1.32,0,2.19,.77,2.19,2.06Zm-1.27,.02c0-.54-.32-.89-.97-.89h-1.27v1.77h1.27c.65,0,.97-.35,.97-.89Z"/><path class="cls-1" d="M39.7,8.5h-1.41l1.11-2.13-2.12-4.02h1.41l1.41,2.66,1.38-2.66h1.41l-3.19,6.15Z"/><path class="cls-1" d="M50.39,8.5h-1.26V3.55h-2.73v4.95h-1.26V2.35h5.24v6.15Z"/><path class="cls-1" d="M58.32,8.5h-1.26V3.55h-2.73v4.95h-1.26V2.35h5.24v6.15Z"/><path class="cls-1" d="M64.92,7.05h-2.49l-.53,1.45h-1.33l2.3-6.15h1.59l2.3,6.15h-1.34l-.52-1.45Zm-.44-1.19l-.81-2.23-.81,2.23h1.62Z"/><path class="cls-1" d="M76.94,7.05h-2.49l-.53,1.45h-1.33l2.3-6.15h1.59l2.3,6.15h-1.34l-.52-1.45Zm-.44-1.19l-.81-2.23-.81,2.23h1.62Z"/><path class="cls-1" d="M84.95,3.55h-2.64v4.95h-1.26V2.35h3.89v1.19Z"/><path class="cls-1" d="M91.99,4.42c0,1.29-.87,2.1-2.19,2.1h-1.33v1.99h-1.26V2.35h2.58c1.32,0,2.19,.77,2.19,2.06Zm-1.27,.02c0-.54-.32-.89-.97-.89h-1.27v1.77h1.27c.65,0,.97-.35,.97-.89Z"/><path class="cls-1" d="M100.52,5.43c0,1.81-1.4,3.18-3.21,3.18s-3.2-1.37-3.2-3.18,1.39-3.18,3.2-3.18,3.21,1.37,3.21,3.18Zm-5.14,0c0,1.15,.83,1.99,1.93,1.99s1.93-.83,1.93-1.99-.83-1.99-1.93-1.99-1.93,.83-1.93,1.99Z"/><path class="cls-1" d="M108.18,8.5h-1.26V3.55h-2.73v4.95h-1.26V2.35h5.24v6.15Z"/><path class="cls-1" d="M115.64,4.42c0,1.29-.87,2.1-2.19,2.1h-1.33v1.99h-1.26V2.35h2.58c1.32,0,2.19,.77,2.19,2.06Zm-1.27,.02c0-.54-.32-.89-.97-.89h-1.27v1.77h1.27c.65,0,.97-.35,.97-.89Z"/><path class="cls-1" d="M119.31,3.55v1.24h2.64v1.19h-2.64v1.33h2.87v1.19h-4.13V2.35h4.13v1.19h-2.87Z"/><path class="cls-1" d="M130.96,7.31v2.42h-1.26v-1.22h-4.16v1.22h-1.26v-2.42h.87c.14-.14,.23-.39,.3-.82l.66-4.14h3.97V7.31h.88Zm-4.45,0h2.31V3.55h-1.65l-.49,3.07c-.04,.28-.11,.51-.17,.69Z"/><path class="cls-1" d="M138.47,8.5h-1.26V3.55h-2.73v4.95h-1.26V2.35h5.24v6.15Z"/><path class="cls-1" d="M145.93,4.42c0,1.29-.87,2.1-2.19,2.1h-1.33v1.99h-1.26V2.35h2.58c1.32,0,2.19,.77,2.19,2.06Zm-1.27,.02c0-.54-.32-.89-.97-.89h-1.27v1.77h1.27c.65,0,.97-.35,.97-.89Z"/><path class="cls-1" d="M153.56,2.35v6.15h-1.26v-2.57l.11-1.73-2.68,4.3h-1.44V2.35h1.26v2.57l-.11,1.73,2.68-4.3h1.44Z"/><path class="cls-1" d="M160.87,2.35v6.15h-1.26v-2.12h-.78l-1.51,2.12h-1.54l1.65-2.24c-.82-.25-1.31-.91-1.31-1.9,0-1.24,.77-2.01,2.1-2.01h2.64Zm-1.26,2.89v-1.7h-1.26c-.65,0-.97,.33-.97,.85s.32,.84,.97,.84h1.26Z"/><path class="cls-1" d="M167.92,3.55h-1.77v4.95h-1.26V3.55h-1.77v-1.19h4.8v1.19Z"/><path class="cls-1" d="M175.4,2.35v6.15h-1.26v-2.57l.11-1.73-2.68,4.3h-1.44V2.35h1.26v2.57l-.11,1.73,2.68-4.3h1.44Z"/><path class="cls-1" d="M183.26,2.35v6.15h-1.26v-2.57l.11-1.73-2.68,4.3h-1.44V2.35h1.26v2.57l-.11,1.73,2.68-4.3h1.44Zm-4.11-2.05V.07h.99v.2c0,.3,.19,.49,.48,.49s.48-.19,.48-.49V.07h.98v.24c0,.89-.7,1.41-1.47,1.41s-1.48-.52-1.48-1.41Z"/></g><path class="cls-1" d="M142.38,13.04h-14.42v25.7h6.19v-5.74h8.24c6.18,0,10.73-3.95,10.73-10.03s-4.55-9.92-10.73-9.92Zm.49,13.99h-8.73v-8.02h8.73c2.42,0,4.14,1.45,4.14,3.91s-1.72,4.11-4.14,4.11Z"/></svg>